<svg xmlns="http://www.w3.org/2000/svg" data-name="Layer 1" viewBox="0 0 24 24"><path fill="#66bdee" d="M12 22a10 10 0 1 1 10-10 10.011 10.011 0 0 1-10 10Z"/><path fill="#0092e4" d="M21.83 10.17a9.995 9.995 0 0 0-11.66 11.66A10.043 10.043 0 0 0 12 22h.25a8.24 8.24 0 0 1-.25-2 8.01 8.01 0 0 1 8-8 8.237 8.237 0 0 1 2 .25V12a10.048 10.048 0 0 0-.17-1.83Z"/><path fill="#0092e4" d="M3.99 6.03A10.462 10.462 0 0 0 2.84 8H3a14.015 14.015 0 0 1 13.94 12.69 9.885 9.885 0 0 0 1.83-1.36A16.02 16.02 0 0 0 3.99 6.03Z"/><path fill="#0092e4" d="M13.83 2.17A9.966 9.966 0 0 0 12 2h-.25v.01A8.097 8.097 0 0 1 12 4a8.01 8.01 0 0 1-8 8 8.097 8.097 0 0 1-1.99-.25H2V12a9.965 9.965 0 0 0 .17 1.83A9.96 9.96 0 0 0 4 14 10.016 10.016 0 0 0 14 4a9.966 9.966 0 0 0-.17-1.83Z"/></svg>