<svg xmlns="http://www.w3.org/2000/svg" data-name="Layer 1" viewBox="0 0 24 24"><circle cx="12" cy="12" r="10" fill="#66bdee"/><path fill="#0092e4" d="M8.873 17.5a1 1 0 0 1-.624-1.782A1.028 1.028 0 0 0 8.5 15a.948.948 0 0 0-.251-.719 1.022 1.022 0 0 1-.135-1.393.978.978 0 0 1 1.351-.194A2.868 2.868 0 0 1 10.5 15a2.963 2.963 0 0 1-1.004 2.282.996.996 0 0 1-.623.218zm6.604-.006a.956.956 0 0 1-.57-.188A2.868 2.868 0 0 1 13.873 15a2.963 2.963 0 0 1 1.004-2.282 1 1 0 0 1 1.246 1.564 1.028 1.028 0 0 0-.25.718.948.948 0 0 0 .25.719 1.022 1.022 0 0 1 .136 1.393 1.008 1.008 0 0 1-.782.382z"/><path fill="#0092e4" d="M14 16h-4a1 1 0 0 1 0-2h4a1 1 0 0 1 0 2Z"/><circle cx="15" cy="10" r="1" fill="#0092e4"/><circle cx="9" cy="10" r="1" fill="#0092e4"/></svg>