<svg xmlns="http://www.w3.org/2000/svg" viewBox="0 0 24 24"><path fill="#66bdee" d="M19 16H5a1 1 0 0 1-1-1V3a1 1 0 0 1 1-1h14a1 1 0 0 1 1 1v12a1 1 0 0 1-1 1Z"/><path fill="#0092e4" d="M21 4H3a1 1 0 0 1 0-2h18a1 1 0 0 1 0 2zm0 12H3a1 1 0 0 1 0-2h18a1 1 0 0 1 0 2z"/><path fill="#0092e4" d="M12 22a1 1 0 0 1-1-1v-6a1 1 0 0 1 2 0v6a1 1 0 0 1-1 1Z"/><path fill="#0092e4" d="M16.999 22a.996.996 0 0 1-.55-.166l-5-3.31a1 1 0 1 1 1.103-1.668l5 3.31A1 1 0 0 1 16.999 22Z"/><path fill="#0092e4" d="M7.001 22a1 1 0 0 1-.553-1.834l5-3.31a1 1 0 0 1 1.104 1.668l-5 3.31A.995.995 0 0 1 7 22zm3.489-9.498a1.763 1.763 0 0 1-1.755-1.758V7.256a1.755 1.755 0 0 1 2.633-1.52l3.02 1.744a1.755 1.755 0 0 1 0 3.04l-3.02 1.744a1.755 1.755 0 0 1-.878.238z"/></svg>