<svg xmlns="http://www.w3.org/2000/svg" enable-background="new 0 0 24 24" viewBox="0 0 24 24"><path fill="#66bdee" d="M20 6h-4V5a3.003 3.003 0 0 0-3-3h-2a3.003 3.003 0 0 0-3 3v1H4a1 1 0 1 0 0 2h16a1 1 0 1 0 0-2zM10 6V5c0-.552.448-1 1-1h2c.552 0 1 .448 1 1v1h-4zM10 10a1 1 0 0 0-1 1v6a1 1 0 0 0 2 0v-6a1 1 0 0 0-1-1zM14 10a1 1 0 0 0-1 1v6a1 1 0 0 0 2 0v-6a1 1 0 0 0-1-1z"/><path fill="#0092e4" d="M5 8v11a3.003 3.003 0 0 0 3 3h8a3.003 3.003 0 0 0 3-3V8H5zm6 9a1 1 0 0 1-2 0v-6a1 1 0 1 1 2 0v6zm4 0a1 1 0 0 1-2 0v-6a1 1 0 1 1 2 0v6z"/></svg>